<?xml version='1.0' encoding='UTF-8'?>
<svg xmlns="http://www.w3.org/2000/svg" height="256" width="256" version="1.1" xmlns:xlink="http://www.w3.org/1999/xlink" viewBox="0 0 256 256">
    <g transform="matrix(6.5628581,0,0,6.5628581,-38.358577,-35.224093)">
        <g id="surface1">
            <path d="M 28.195312 38.664062 L 22.644531 38.664062 L 22.644531 42.828125 L 28.195312 42.828125 L 28.195312 38.664062 " style=" stroke:none;fill-rule:nonzero;fill:rgb(20.817566%,30.116272%,40.426636%);fill-opacity:1;"/>
            <path d="M 30.332031 6 L 19.972656 6 L 19.972656 10.160156 L 30.332031 10.160156 L 30.332031 6 " style=" stroke:none;fill-rule:nonzero;fill:rgb(20.817566%,30.116272%,40.426636%);fill-opacity:1;"/>
            <path d="M 35.238281 10.019531 L 15.3125 10.019531 L 15.3125 37.632812 L 35.238281 37.632812 L 35.238281 10.019531 " style=" stroke:none;fill-rule:nonzero;fill:rgb(100%,100%,100%);fill-opacity:1;"/>
            <path d="M 34.285156 36.214844 C 34.285156 36.496094 34.179688 36.648438 33.890625 36.648438 C 33.628906 36.648438 19.300781 36.648438 16.777344 36.648438 C 16.535156 36.648438 16.402344 36.496094 16.402344 36.214844 C 16.402344 32.859375 16.382812 11.238281 16.402344 11 C 16.425781 10.75 16.554688 10.648438 16.792969 10.664062 C 17.011719 10.683594 31.632812 10.65625 33.941406 10.652344 C 34.140625 10.652344 34.316406 10.820312 34.300781 11.089844 C 34.289062 11.332031 34.285156 32.867188 34.285156 36.214844 Z M 26.921875 41.882812 C 26.910156 42.285156 26.582031 42.304688 26.582031 42.304688 L 24.164062 42.304688 C 24.164062 42.304688 23.785156 42.328125 23.777344 41.910156 C 23.769531 41.492188 23.769531 39.808594 23.777344 39.488281 C 23.785156 39.167969 24.128906 39.167969 24.128906 39.167969 L 26.558594 39.160156 C 26.558594 39.160156 26.921875 39.152344 26.921875 39.429688 C 26.921875 39.710938 26.925781 41.484375 26.921875 41.882812 Z M 22.433594 7.414062 L 28.261719 7.414062 C 28.503906 7.414062 28.699219 7.792969 28.699219 8.257812 C 28.699219 8.730469 28.503906 9.105469 28.261719 9.105469 L 22.433594 9.105469 C 22.191406 9.105469 21.996094 8.730469 21.996094 8.257812 C 21.996094 7.792969 22.191406 7.414062 22.433594 7.414062 Z M 36.625 7.9375 C 36.625 6.378906 35.261719 5.367188 33.855469 5.367188 C 28.8125 5.367188 18.183594 5.40625 16.816406 5.4375 C 15.035156 5.472656 14.101562 7.304688 14.070312 8.003906 C 14.046875 8.59375 14.21875 33.039062 14.101562 41.257812 C 14.070312 43.273438 15.445312 44.207031 16.816406 44.3125 C 17.597656 44.375 28.15625 44.394531 33.53125 44.351562 C 35.386719 44.339844 36.628906 43.089844 36.628906 41.195312 C 36.628906 32.800781 36.625 9.488281 36.625 7.9375 " style=" stroke:none;fill-rule:nonzero;fill:rgb(38.531494%,75.96283%,78.866577%);fill-opacity:1;"/>
            <path d="M 16.761719 10.664062 C 16.523438 10.648438 16.394531 10.75 16.371094 11 C 16.351562 11.238281 16.371094 32.859375 16.371094 36.210938 C 16.371094 36.496094 16.503906 36.648438 16.746094 36.648438 C 19.269531 36.648438 33.59375 36.648438 33.859375 36.648438 C 34.148438 36.648438 34.410156 36.445312 34.257812 36.210938 C 31.925781 32.714844 16.980469 10.683594 16.761719 10.664062 " style=" stroke:none;fill-rule:nonzero;fill:rgb(88.981628%,88.711548%,87.321472%);fill-opacity:1;"/>
        </g>
    </g>
</svg>
