<svg width="200" height="200" viewBox="0 0 1024 1024" xmlns="http://www.w3.org/2000/svg" xmlns:xlink="http://www.w3.org/1999/xlink" overflow="hidden"><path d="M474.5 889 249.3 889C195.5 889 151.7 845.2 151.7 791.4L151.7 209.6C151.7 155.8 195.5 112 249.3 112L676.3 112C730.1 112 773.9 155.8 773.9 209.6L773.9 382.8C773.9 393.8 764.9 402.8 753.9 402.8 742.9 402.8 733.9 393.8 733.9 382.8L733.9 209.6C733.9 177.8 708 152 676.3 152L249.3 152C217.5 152 191.7 177.9 191.7 209.6L191.7 791.3C191.7 823.1 217.6 848.9 249.3 848.9L474.5 848.9C485.5 848.9 494.5 857.9 494.5 868.9 494.5 879.9 485.6 889 474.5 889Z" fill="#00B050"/><path d="M676 912.7 670.9 910.9C570.5 875.5 527.4 825.5 503.6 791 490.1 771.4 483 748.4 483 724.3L483 529.1C483 513.6 495.6 500.7 511.1 500.4 540.3 499.8 613.4 493.6 663.3 450.8 663.9 450.3 664.3 449.9 664.6 449.7L670.1 445.1 684.6 445.1 690.1 449.7C690.4 449.9 690.8 450.3 691.3 450.7 708 465 756.4 498.5 844.2 500.4 859.7 500.7 872.3 513.6 872.3 529.1L872.3 724.4C872.3 748.4 865.2 771.5 851.7 791.1 828 825.6 784.8 875.6 684.7 910.8L683.3 911.3 676 912.7ZM523 540 523 724.4C523 740.3 527.7 755.5 536.6 768.4 556.7 797.6 593 839.6 677.7 870.8 761.3 840.1 797 800 818.8 768.4 827.7 755.5 832.4 740.3 832.4 724.4L832.4 540C790 537.9 751.3 528.9 717.1 513.4 702.5 506.8 689.3 499.1 677.5 490.6 649.9 510.6 600.2 536.1 523 540ZM404.6 516.8 289.3 516.8C278.3 516.8 269.3 507.8 269.3 496.8 269.3 485.8 278.3 476.8 289.3 476.8L404.6 476.8C415.6 476.8 424.6 485.8 424.6 496.8 424.6 507.8 415.6 516.8 404.6 516.8ZM414 616.4 279.9 616.4C268.9 616.4 259.9 607.4 259.9 596.4 259.9 585.4 268.9 576.4 279.9 576.4L414 576.4C425 576.4 434 585.4 434 596.4 434 607.4 425 616.4 414 616.4Z" fill="#00B050"/><path d="M346.9 610.5C335.9 610.5 326.9 601.5 326.9 590.5L326.9 498.7C326.9 487.7 335.9 478.7 346.9 478.7 357.9 478.7 366.9 487.7 366.9 498.7L366.9 590.5C366.9 601.5 358 610.5 346.9 610.5ZM549.1 290.4 273.8 290.4C262.8 290.4 253.8 281.4 253.8 270.4 253.8 259.4 262.8 250.4 273.8 250.4L549.1 250.4C560.1 250.4 569.1 259.4 569.1 270.4 569.1 281.4 560.1 290.4 549.1 290.4Z" fill="#00B050"/><path d="M450.8 397.5 273.8 397.5C262.8 397.5 253.8 388.5 253.8 377.5 253.8 366.5 262.8 357.5 273.8 357.5L450.8 357.5C461.8 357.5 470.8 366.5 470.8 377.5 470.8 388.5 461.9 397.5 450.8 397.5Z" fill="#00B050"/><path d="M715.4 564.9 593.3 683.7 651.9 683.7 634 778.1 762.6 654.4 700.7 654.4Z" fill="#00B050"/></svg>