<svg width="200" height="200" viewBox="0 0 1024 1024" xmlns="http://www.w3.org/2000/svg" xmlns:xlink="http://www.w3.org/1999/xlink" overflow="hidden"><path d="M591.644 574.578 506.311 659.911 369.778 523.378 449.422 443.733 409.6 403.911 329.956 483.556 250.311 403.911 153.6 500.622C59.135 593.799 49.356 742.929 130.844 847.644L0 984.178 39.8222 1024 170.667 893.156C216.178 932.978 273.067 950.044 329.956 950.044 398.222 950.044 466.489 921.6 517.689 870.4L614.4 773.689 540.444 699.733 625.778 614.4 591.644 574.578ZM477.867 824.889C438.044 864.711 386.844 887.467 335.644 887.467 284.444 887.467 233.244 870.4 199.111 830.578L193.422 824.889C119.467 750.933 119.467 625.778 199.111 546.133L250.311 494.933 529.067 773.689 477.867 824.889ZM978.489 91.0222 938.667 51.2 813.511 170.667C768 130.844 711.111 113.778 654.222 113.778 585.956 113.778 517.689 142.222 466.489 193.422L369.778 284.444 739.556 654.222 830.578 563.2C925.043 470.023 934.822 320.893 853.333 216.178L978.489 91.0222ZM785.067 517.689 739.556 563.2 460.8 284.444 506.311 238.933C546.133 199.111 597.333 176.356 648.533 176.356 699.733 176.356 750.933 193.422 785.067 233.244L790.756 238.933C870.4 312.889 864.711 438.044 785.067 517.689Z" stroke="#00B050" stroke-width="0.999811" fill="#00B050"/></svg>