<svg width="218.75" height="200" viewBox="0 0 1120 1024" xmlns="http://www.w3.org/2000/svg" xmlns:xlink="http://www.w3.org/1999/xlink" overflow="hidden"><path d="M451.831 149.127 482.463 140.92 494.848 187.139 464.212 195.345 451.831 149.127ZM297.844 249.788 320.266 227.358 354.108 261.187 331.687 283.615 297.844 249.788ZM214.903 413.978 223.111 383.342 269.333 395.727 261.125 426.363 214.903 413.978ZM216.858 567 263.076 554.615 271.284 585.251 225.066 597.627 216.858 567ZM303.363 729.141 337.195 695.313 359.626 717.736 325.789 751.573 303.363 729.141ZM771.328 712.22 793.748 689.795 827.586 723.632 805.16 746.055 771.328 712.22ZM856.177 577.731 864.389 547.094 910.606 559.489 902.4 590.116 856.177 577.731ZM854.095 388.211 900.313 375.821 908.52 406.458 862.302 418.838 854.095 388.211ZM765.81 255.733 799.647 221.906 822.077 244.327 788.239 278.163 765.81 255.733ZM623.052 185.164 635.433 138.941 666.07 147.148 653.689 193.37 623.052 185.164Z" fill="#00B050"/><path d="M701.449 773.305 669.736 773.305 669.736 744.859C669.684 702.754 686.487 662.38 716.405 632.743 757.528 592.8 780.709 537.901 780.667 480.572 779.863 366.599 690.675 272.853 576.887 266.361 488.709 262.103 406.985 312.477 371.165 393.165 335.348 473.856 352.81 568.255 415.117 630.799 445.904 660.837 463.425 701.917 463.802 744.929L463.802 773.375 431.948 773.375 431.948 744.859C431.582 710.269 417.439 677.25 392.654 653.123 321.13 581.315 301.087 472.934 342.196 380.296 383.304 287.654 477.113 229.798 578.348 234.643 709.016 242.056 811.454 349.697 812.38 480.572 812.431 546.415 785.814 609.467 738.59 655.346 714.741 679.024 701.364 711.259 701.448 744.859L701.448 773.305Z" fill="#00B050"/><path d="M531.331 632.954C478.335 614.313 453.02 551.442 461.786 517.849 486.058 428.06 576.539 419.299 615.903 353.994 673.698 394.191 710.699 474.105 683.578 548.73 665.285 598.809 599.213 618.28 572.299 623.84" fill="#00B050"/><path d="M526.047 647.906C467.629 627.042 434.867 557.494 446.693 513.746 462.2 455.952 503.026 428.06 539.125 403.44 564.092 386.332 587.805 370.265 602.484 345.786L611.245 331.32 625.154 340.988C685.106 382.718 729.477 469.164 698.6 553.877 676.692 613.759 599.142 634.207 575.913 639.074L569.446 608.057C583.354 605.204 652.138 588.65 668.833 543.024 692.132 479.322 662.92 414.011 619.593 376.734 601.995 398.989 579.25 414.501 556.995 429.663 522.223 453.312 489.743 475.632 477.293 522.023 470.34 549.078 492.249 602.492 536.548 618.069L526.047 647.906Z" fill="#00B050"/><path d="M528.69 715.228C493.499 615.568 535.646 535.447 569.587 471.045 575.495 459.707 581.131 449.206 586.137 438.842L614.653 452.751C609.366 463.604 603.664 474.452 597.615 485.925 564.995 547.893 528.065 618.068 558.528 704.728L528.69 715.228ZM428.123 415.125 398.909 402.397C421.678 350.313 468.389 312.58 524.102 301.275L530.428 332.362C484.887 341.656 446.722 372.532 428.123 415.125ZM416.16 472.159 384.448 472.159C384.444 460.479 385.607 448.829 387.92 437.38L419.012 443.712C417.119 453.076 416.164 462.606 416.16 472.159ZM597.055 995.236 536.342 995.236 504.694 963.521 479.52 963.521 479.52 931.81 517.77 931.81 549.484 963.521 583.913 963.521 615.626 931.81 653.877 931.81 653.877 963.521 628.773 963.521 597.055 995.236ZM432.02 805.02 701.449 805.02 701.449 836.731 432.02 836.731 432.02 805.02ZM432.02 868.448 701.449 868.448 701.449 900.161 432.02 900.161 432.02 868.448Z" fill="#00B050"/></svg>