<svg width="200" height="200" viewBox="0 0 1024 1024" xmlns="http://www.w3.org/2000/svg" xmlns:xlink="http://www.w3.org/1999/xlink" overflow="hidden"><path d="M832 405.344 608 405.344C590.327 405.344 576 419.671 576 437.344 576 455.017 590.327 469.344 608 469.344L832 469.344C849.673 469.344 864 455.017 864 437.344 864 419.671 849.673 405.344 832 405.344ZM832 565.344 608 565.344C590.327 565.344 576 579.671 576 597.344 576 615.017 590.327 629.344 608 629.344L832 629.344C849.673 629.344 864 615.017 864 597.344 864 579.671 849.673 565.344 832 565.344ZM404.352 635.36 404.352 614.496C435.168 594.528 464.896 559.456 481.12 516.448 492.608 511.456 500.864 497.344 507.52 472.192 512.672 452.704 504.416 439.84 493.248 432.704 487.744 340.832 434.144 288 352 288 268.704 288 212.544 342.368 208.224 436.672 198.112 445.024 191.616 458.432 196.672 477.536 203.872 504.768 212.768 520.416 225.024 526.4 242.336 565.056 270.688 596.416 299.648 614.784L299.648 635.36C219.04 644.032 160 672.256 160 705.728 160 746.112 544 746.112 544 705.728 544 672.256 484.96 644.032 404.352 635.36Z" fill="#00B050"/><path d="M896 128 128 128C74.9807 128 32 170.981 32 224L32 800C32 853.019 74.9807 896 128 896L896 896C949.019 896 992 853.019 992 800L992 224C992 170.981 949.019 128 896 128ZM928 800C928 817.673 913.673 832 896 832L128 832C110.327 832 96 817.673 96 800L96 224C96 206.327 110.327 192 128 192L896 192C913.673 192 928 206.327 928 224L928 800Z" fill="#00B050"/></svg>