<svg width="200" height="200" viewBox="0 0 1024 1024" xmlns="http://www.w3.org/2000/svg" xmlns:xlink="http://www.w3.org/1999/xlink" overflow="hidden"><style>
.MsftOfcResponsive_Stroke_00b050 {
 stroke:#00B050; 
}
</style>
<path d="M741.28 642.845C731.746 633.314 716.293 633.318 706.759 642.845L677.201 672.404 535.376 530.581 625.484 434.79C711.24 492.282 828.181 482.794 904.041 406.935 968.874 342.101 984.338 246.363 951.86 166.653L801.203 317.312 680.384 196.493 830.579 46.2989C750.613 14.0779 656.639 30.7036 592.224 95.1198 516.204 171.14 507.168 288.75 565.152 374.637L469.454 464.659 225.742 220.945 223.891 197.86 214.601 154.239 118.289 85.4483 100.006 74.6584 38.4624 136.202 49.2511 154.486 118.038 250.791 161.665 260.087 188.573 262.245 188.973 261.845 429.435 502.305 42.7564 866.047C35.2921 873.509 34.8843 886.017 42.3538 893.484L106.553 957.685C114.019 965.149 126.527 964.743 133.988 957.281L497.731 570.6 638.368 711.237 605.358 744.247C595.83 753.781 595.826 769.234 605.358 778.768L810.317 983.723C819.848 993.255 835.304 993.255 844.836 983.723L946.237 882.323C955.767 872.792 955.767 857.336 946.237 847.805L741.28 642.845ZM132.96 905.092C122.462 915.592 105.443 915.592 94.947 905.092 84.4496 894.592 84.4496 877.572 94.947 867.079 105.443 856.579 122.462 856.579 132.96 867.079 143.457 877.572 143.457 894.592 132.96 905.092Z" class="MsftOfcResponsive_Stroke_00b050" stroke="#00B050" stroke-width="0.999811" fill="#00B050"/></svg>