<svg width="200" height="200" viewBox="0 0 1024 1024" xmlns="http://www.w3.org/2000/svg" xmlns:xlink="http://www.w3.org/1999/xlink" overflow="hidden"><path d="M469.312 170.56C304.298 170.56 170.528 304.33 170.528 469.344 170.528 634.358 304.298 768.128 469.312 768.128 634.326 768.128 768.096 634.358 768.096 469.344 768.096 304.33 634.326 170.56 469.312 170.56ZM85.44 469.312C85.44 257.288 257.32 85.408 469.344 85.408 681.368 85.408 853.248 257.288 853.248 469.312 853.248 681.336 681.368 853.216 469.344 853.216 257.32 853.216 85.44 681.336 85.44 469.312Z" fill="#00B050"/><path d="M680.32 680.32C696.96 663.68 723.84 663.68 740.48 680.32L926.08 865.92C942.177 883.048 941.342 909.982 924.214 926.08 907.832 941.476 882.302 941.476 865.92 926.08L680.32 740.48C663.719 723.863 663.719 696.937 680.32 680.32ZM453.76 277.76C470.677 280.059 484.598 292.218 489.152 308.672L531.648 463.36 551.424 427.456C558.914 413.813 573.236 405.328 588.8 405.312L672 405.312C695.576 405.312 714.688 424.424 714.688 448 714.688 471.576 695.576 490.688 672 490.688L614.016 490.688 555.776 596.544C544.397 617.192 518.434 624.706 497.786 613.328 487.719 607.78 480.314 598.406 477.248 587.328L433.28 427.456 407.808 469.952C400.095 482.815 386.198 490.687 371.2 490.688L288 490.688C264.424 490.688 245.312 471.576 245.312 448 245.312 424.424 264.424 405.312 288 405.312L347.008 405.312 411.392 298.048C420.172 283.4 436.838 275.394 453.76 277.696Z" fill="#00B050"/></svg>