<svg width="200" height="200" viewBox="0 0 1024 1024" xmlns="http://www.w3.org/2000/svg" xmlns:xlink="http://www.w3.org/1999/xlink" overflow="hidden"><path d="M449.536 392.96C549.035 392.96 629.76 468.395 629.76 561.408 629.76 595.712 618.837 627.627 599.893 654.251L655.36 705.963C668.556 717.86 669.609 738.202 657.711 751.398 656.969 752.222 656.184 753.007 655.36 753.749 640.888 766.973 618.718 766.973 604.245 753.749L548.864 701.952C518.992 720.305 484.595 729.968 449.536 729.856 349.952 729.856 269.227 654.421 269.227 561.408 269.227 468.395 349.952 392.96 449.536 392.96ZM449.536 460.373C389.803 460.373 341.333 505.6 341.333 561.408 341.333 617.216 389.803 662.443 449.536 662.443 509.269 662.443 557.653 617.216 557.653 561.408 557.653 505.6 509.269 460.373 449.536 460.373Z" fill="#00B050"/><path d="M885.077 136.192 476.587 136.192C476.587 60.928 415.659 0 340.48 0L136.192 0C60.928 0 0 60.928 0 136.192L0 816.981C0 892.245 60.928 953.173 136.192 953.173L885.077 953.173C960.341 953.173 1021.27 892.245 1021.27 816.981L1021.27 272.299C1021.27 197.205 960.341 136.192 885.077 136.192ZM136.192 68.096 340.395 68.096C378.027 68.096 408.491 98.56 408.491 136.192L68.0107 136.192C68.0107 98.6453 98.56 68.096 136.192 68.096ZM953.173 816.981C953.173 854.613 922.709 885.077 885.077 885.077L136.192 885.077C98.5836 885.077 68.096 854.59 68.096 816.981L68.096 204.288 885.077 204.288C922.709 204.288 953.173 234.752 953.173 272.299L953.173 816.981Z" fill="#00B050"/></svg>