<svg width="200" height="200" viewBox="0 0 1024 1024" xmlns="http://www.w3.org/2000/svg" xmlns:xlink="http://www.w3.org/1999/xlink" overflow="hidden"><path d="M789.053 959.968 236.143 959.968C165.435 959.968 157.762 933.872 157.153 882.126L157.153 142.616C157.153 99.6281 173.179 64.1613 236.143 64.7722 236.143 64.7722 689.366 64.7722 563.296 64.7722L618.513 64.7722 862.257 323.466 868.043 328.067 868.043 337.225 868.043 345.892 868.043 395.61 868.043 882.128C868.043 940.211 846.311 959.968 789.053 959.968ZM631.082 162.358 631.082 305.175C631.082 326.668 635.598 328.067 657.41 328.067L789.057 328.067 631.082 162.358ZM815.384 380.723 631.079 380.723C587.457 380.723 578.422 344.726 578.422 301.736L578.422 117.432 236.14 117.432C214.326 117.432 209.811 122.267 209.811 143.761L209.811 880.981C209.811 902.476 214.326 907.308 236.14 907.308L789.055 907.308C810.866 907.308 815.383 902.476 815.383 880.981L815.383 380.723ZM288.797 696.674 736.396 696.674 736.396 749.334 288.797 749.334 288.797 696.674ZM288.797 591.356 736.396 591.356 736.396 644.017 288.797 644.017 288.797 591.356ZM288.797 459.712 499.432 459.712 499.432 512.369 288.797 512.369 288.797 459.712ZM288.797 354.396 499.432 354.396 499.432 407.053 288.797 407.053 288.797 354.396Z" fill="#00B050"/></svg>