<svg width="200" height="200" viewBox="0 0 1024 1024" xmlns="http://www.w3.org/2000/svg" xmlns:xlink="http://www.w3.org/1999/xlink" overflow="hidden"><path d="M435.626 89.642 440.761 532.289 440.761 596.472 504.943 596.472 947.591 590.91C912.903 801.239 732.845 956.72 519.706 960.388L515.641 960.388C273.437 963.4 74.6507 769.497 71.6389 527.293 68.9592 311.794 223.247 126.281 435.626 89.642M499.809 18.3991C222.139 23.0072 0.779301 251.838 5.38743 529.508 9.99557 807.178 238.827 1028.54 516.496 1023.93L522.915 1023.93C796.247 1019.98 1016.34 798.368 1018.41 525.015L504.943 531.433 498.525 17.9712Z" fill="#00B050"/><path d="M627.961 68.8895C795.829 95.8691 926.495 229.138 950.158 397.505L632.239 401.57 627.961 68.8895M569.126 0 563.35 0 569.126 466.395 1018.41 460.832 1018.41 443.717C1015.36 197.762 815.1-0.0188447 569.126 8.49805e-06Z" fill="#00B050"/></svg>