<svg width="200" height="200" viewBox="0 0 1024 1024" xmlns="http://www.w3.org/2000/svg" xmlns:xlink="http://www.w3.org/1999/xlink" overflow="hidden"><path d="M992 48 560 48C560 21.488 538.528 0 512 0 485.504 0 464 21.488 464 48L32 48C14.336 48 0 62.336 0 80 0 97.664 14.336 112 32 112L71.984 112 71.984 791.728C71.984 827.072 100.64 855.728 135.984 855.728L903.984 855.728C939.328 855.728 967.984 827.072 967.984 791.728L967.984 112 992 112C1009.68 112 1024 97.664 1024 80 1024 62.336 1009.68 48 992 48ZM919.984 791.728C919.984 800.56 912.816 807.728 903.984 807.728L135.984 807.728C127.152 807.728 119.984 800.56 119.984 791.728L119.984 112 919.984 112 919.984 791.728ZM404.176 815.68C398.032 815.68 391.872 818.016 387.2 822.688L194.864 983.024C185.504 992.4 185.504 1007.6 194.864 1016.98 199.552 1021.66 205.68 1024 211.824 1024 217.968 1024 224.128 1021.66 228.8 1016.99L421.136 856.64C430.496 847.28 430.496 832.08 421.136 822.704 416.448 818.032 410.32 815.68 404.176 815.68L404.176 815.68ZM619.824 815.68C613.68 815.68 607.536 818.016 602.848 822.688 593.488 832.064 593.488 847.264 602.848 856.624L795.184 1016.96C799.872 1021.66 806.016 1024 812.16 1024 818.32 1024 824.464 1021.66 829.152 1016.99 838.512 1007.62 838.512 992.416 829.152 983.056L636.8 822.704C632.128 818.032 625.968 815.68 619.824 815.68L619.824 815.68ZM557.664 254 829.664 254C842.912 254 853.664 243.248 853.664 230 853.664 216.752 842.912 206 829.664 206L557.664 206C544.416 206 533.664 216.752 533.664 230 533.664 243.248 544.416 254 557.664 254ZM829.664 353.328 557.664 353.328C544.416 353.328 533.664 364.08 533.664 377.328 533.664 390.576 544.416 401.328 557.664 401.328L829.664 401.328C842.912 401.328 853.664 390.576 853.664 377.328 853.664 364.08 842.928 353.328 829.664 353.328ZM829.664 500.672 557.664 500.672C544.416 500.672 533.664 511.424 533.664 524.672 533.664 537.92 544.416 548.672 557.664 548.672L829.664 548.672C842.912 548.672 853.664 537.92 853.664 524.672 853.664 511.424 842.928 500.672 829.664 500.672ZM332.4 546.528C416.112 546.528 483.984 478.656 483.984 394.944 483.984 314.624 421.504 248.944 342.512 243.744L342.512 405.056 181.2 405.056C186.4 484.064 252.08 546.528 332.4 546.528ZM325.664 221.472C236.368 221.472 163.984 293.856 163.984 383.152L325.664 383.152 325.664 221.472ZM829.664 648 189.664 648C176.416 648 165.664 658.752 165.664 672 165.664 685.248 176.416 696 189.664 696L829.664 696C842.912 696 853.664 685.248 853.664 672 853.664 658.752 842.928 648 829.664 648Z" fill="#00B050"/></svg>