<?xml version="1.0" encoding="UTF-8" standalone="no"?>
<svg width="67.7333mm" height="67.7333mm"
 viewBox="0 0 256 256"
 xmlns="http://www.w3.org/2000/svg" xmlns:xlink="http://www.w3.org/1999/xlink"  version="1.2" baseProfile="tiny">
<title>Qt SVG Document</title>
<desc>Generated with Qt</desc>
<defs>
</defs>
<g fill="none" stroke="black" stroke-width="1" fill-rule="evenodd" stroke-linecap="square" stroke-linejoin="bevel" >

<g fill="none" stroke="#000000" stroke-opacity="1" stroke-width="1" stroke-linecap="square" stroke-linejoin="bevel" transform="matrix(0.0666667,0,0,0.0666667,0.933333,0.933333)"
font-family="微软雅黑" font-size="12" font-weight="400" font-style="normal" 
>
</g>

<g fill="none" stroke="#000000" stroke-opacity="1" stroke-width="1" stroke-linecap="square" stroke-linejoin="bevel" transform="matrix(0.0666667,0,0,0.0666667,0,0)"
font-family="微软雅黑" font-size="12" font-weight="400" font-style="normal" 
>
</g>

<g fill="none" stroke="#000000" stroke-opacity="1" stroke-width="1" stroke-linecap="square" stroke-linejoin="bevel" transform="matrix(0.0666667,0,0,0.0666667,0,0)"
font-family="微软雅黑" font-size="12" font-weight="400" font-style="normal" 
>
</g>

<g fill="none" stroke="#000000" stroke-opacity="1" stroke-width="1" stroke-linecap="square" stroke-linejoin="bevel" transform="matrix(0.0666667,0,0,0.0666667,0,0)"
font-family="微软雅黑" font-size="12" font-weight="400" font-style="normal" 
>
</g>

<g fill="none" stroke="#000000" stroke-opacity="1" stroke-width="1" stroke-linecap="square" stroke-linejoin="bevel" transform="matrix(0.0666667,0,0,0.0666667,0,0)"
font-family="微软雅黑" font-size="12" font-weight="400" font-style="normal" 
>
</g>

<g fill="none" stroke="#000000" stroke-opacity="1" stroke-width="1" stroke-linecap="square" stroke-linejoin="bevel" transform="matrix(0.0666667,0,0,0.0666667,0,0)"
font-family="微软雅黑" font-size="12" font-weight="400" font-style="normal" 
>
</g>

<g fill="#333333" fill-opacity="1" stroke="none" transform="matrix(1.39094,0,0,1.39094,-50.0739,-58.4196)"
font-family="Arial" font-size="16" font-weight="400" font-style="normal" 
>
<path vector-effect="none" fill-rule="evenodd" d="M44.3636,56 L211.636,56 C216.255,56 220,59.7445 220,64.3636 L220,182.555 C220,187.174 216.255,190.919 211.636,190.919 L44.3636,190.919 C39.7445,190.919 36,187.174 36,182.555 L36,64.3636 C36,59.7445 39.7445,56 44.3636,56 M82,98.1622 L82,104.436 L97.9913,104.436 L97.9913,146.328 L105.217,146.328 L105.217,104.436 L121.142,104.436 L121.142,98.1622 L82,98.1622 M133.698,98.1622 L150.827,146.328 L159.659,146.328 L176.788,98.1622 L168.893,98.1622 L155.377,138.098 L155.176,138.098 L141.594,98.1622 L133.698,98.1622 M96.688,199.351 L159.312,199.351 C162.805,199.351 165.636,202.183 165.636,205.676 C165.636,209.169 162.805,212 159.312,212 L96.688,212 C93.1951,212 90.3636,209.169 90.3636,205.676 C90.3636,202.183 93.1951,199.351 96.688,199.351 "/>
</g>

<g fill="none" stroke="#000000" stroke-opacity="1" stroke-width="1" stroke-linecap="square" stroke-linejoin="bevel" transform="matrix(0.0666667,0,0,0.0666667,0,0)"
font-family="微软雅黑" font-size="12" font-weight="400" font-style="normal" 
>
</g>

<g fill="none" stroke="#000000" stroke-opacity="1" stroke-width="1" stroke-linecap="square" stroke-linejoin="bevel" transform="matrix(0.0666667,0,0,0.0666667,0,0)"
font-family="微软雅黑" font-size="12" font-weight="400" font-style="normal" 
>
</g>

<g fill="none" stroke="#000000" stroke-opacity="1" stroke-width="1" stroke-linecap="square" stroke-linejoin="bevel" transform="matrix(0.0666667,0,0,0.0666667,0,0)"
font-family="微软雅黑" font-size="12" font-weight="400" font-style="normal" 
>
</g>

<g fill="none" stroke="#000000" stroke-opacity="1" stroke-width="1" stroke-linecap="square" stroke-linejoin="bevel" transform="matrix(0.0666667,0,0,0.0666667,0,0)"
font-family="微软雅黑" font-size="12" font-weight="400" font-style="normal" 
>
</g>

<g fill="none" stroke="#000000" stroke-opacity="1" stroke-width="1" stroke-linecap="square" stroke-linejoin="bevel" transform="matrix(0.0666667,0,0,0.0666667,0,0)"
font-family="微软雅黑" font-size="12" font-weight="400" font-style="normal" 
>
</g>

<g fill="none" stroke="#000000" stroke-opacity="1" stroke-width="1" stroke-linecap="square" stroke-linejoin="bevel" transform="matrix(0.0666667,0,0,0.0666667,0,0)"
font-family="微软雅黑" font-size="12" font-weight="400" font-style="normal" 
>
</g>

<g fill="none" stroke="#000000" stroke-opacity="1" stroke-width="1" stroke-linecap="square" stroke-linejoin="bevel" transform="matrix(0.0666667,0,0,0.0666667,0.933333,0.933333)"
font-family="微软雅黑" font-size="12" font-weight="400" font-style="normal" 
>
</g>
</g>
</svg>
