<svg viewBox="0 0 2088.24 392.4" xmlns="http://www.w3.org/2000/svg" xmlns:xlink="http://www.w3.org/1999/xlink" id="_图层_1" overflow="hidden"><defs></defs><g><g><path d="M319.86 226.39 370.54 226.39C383.83 226.39 394.1 241.18 393.58 251.14L393.58 324.07 372.65 324.07 372.65 255.95C372.65 253.84 370.95 245.16 363.23 245.16L339.88 245.16C339.88 270.62 339.91 298.62 339.91 324.08L252.65 324.08C243.53 323.84 236.69 317.4 232.42 311.92 228.59 305.42 227.04 300.97 226.88 291.67 226.7 281.32 231.87 273.68 237.01 269.51 241.85 266.04 245.8 264.67 254.6 264.69 262.63 264.69 271.62 264.8 279.65 264.8 279.65 264.8 280.07 255.6 279.33 251.84 278.2 247.92 275.22 245.68 269.49 245.16L235.32 245.16 235.3 226.37C247.43 226.37 259.63 226.37 271.76 226.37 272.08 226.37 283.89 226.32 293.64 237.21 294.06 237.66 298.32 242.44 299.9 249.98 299.9 254.4 299.7 304.68 299.9 304.64 299.52 304.64 319.9 304.64 319.9 304.64M279.66 283.47 258.72 283.47C250.64 283.39 247.82 287.21 247.38 292.86 247.02 300.46 250.81 304.8 255.82 305.63L279.67 305.63" fill="#221814" fill-rule="evenodd"/><path d="M45.92 304.65 45.92 226.39C60.13 226.39 89.72 226.37 90.11 226.37 100.41 226.45 117 235.31 118.24 251.53 118.24 251.85 118.28 304.62 118.28 304.62L147.22 304.69 147.26 202.12C148.06 202.52 167.83 210.54 168.11 210.51L168.11 226.37 196.77 226.37C211.27 228.18 220.38 239.41 220.46 255.77L220.46 324.05 201.19 324.05C201.11 324.23 201.11 256.12 201.11 256.12 200.96 250.3 197.01 245.69 191.42 245.17L168.23 245.12 168.18 324.06 118.31 324.06 118.28 392.41C118.28 392.41 98.01 392.41 98.06 392.4L98.06 255.47C98.16 250.58 92.67 244.86 85.95 245.17L66.84 245.17 66.74 324.05 0.04 324.08-5.05915e-14 226.38 19.23 226.38C19.23 226.38 19.27 304.65 19.27 304.65" fill="#221814" fill-rule="evenodd"/><path d="M0.08 211.26 0.05 187.17 19.35 187.17 19.35 211.26 0.08 211.26Z" fill="#221814" fill-rule="evenodd"/><path d="M455.08 202.09C455.24 202.09 474.79 210.53 474.79 210.53L474.88 324.07C458.65 324.07 423.32 323.99 423.46 324.07 411.16 320.57 403.96 310.18 403.94 296.55L403.94 251.97C403.56 235.2 414.67 227.23 426.41 226.4L455.02 226.38M455.06 245.16 430.91 245.16C426.89 245.16 422.24 250.23 422.24 255.36L422.26 278.71C422.26 283.62 422.24 296.02 422.24 296.02 422.24 299.43 424.98 304.18 430.37 304.66 432.04 304.66 454.24 304.68 455.03 304.68" fill="#221814" fill-rule="evenodd"/></g><g><path d="M236.54 160.72C232.18 164.86 207.53 186.68 175.45 183.77 143.82 180.89 127.92 172.78 112.17 155.24 112.17 155.24 143.25 153.35 185.67 109.22 200.25 123.16 211.03 136.68 236.55 160.72Z" fill="#3EB044" fill-rule="evenodd"/><path d="M106.88 25.13C106.88 25.13 32.49 86.69 103.75 167.52 103.75 167.52 17.93 134.99 24.97 86.57 31.53 53.53 84.76 31.18 106.89 25.13Z" fill="#3EB044" fill-rule="evenodd"/><path d="M110.48 42.23C115.24 45.88 150.65 40.65 227.28 126.94 282.34 191.01 321.31 192.58 321.31 192.58 321.31 192.58 381.83 207.75 417.93 150.17L417.93 80.78C417.93 80.78 386.99 122.75 355.43 121.46 318.43 119.95 308.06 103.42 288.14 84.43 277.92 74.69 233.81 20.28 194.33 10.9 153.87-0.24 115.24 31.63 110.48 42.23Z" fill="#3EB044" fill-rule="evenodd"/><path d="M417.93 45.84 417.93 61.26C417.93 61.26 400.47 80.07 393.67 85 383.53 76.55 348.03 49.98 310.96 86.08 289.83 60.13 262.29 35 262.29 35 262.29 35 292.98 1.93 342.48 0 387.4 1.45 411.29 37.83 417.94 45.84Z" fill="#3EB044" fill-rule="evenodd"/></g></g><g><path d="M573.38 132.87 602.07 132.87 602.07 263.08 573.38 263.08 573.38 132.87Z" fill="#3EB044"/><path d="M624.69 173.7 651.17 173.7 651.17 185.84 651.54 185.84C652.4 184.13 653.62 182.41 655.22 180.69 656.81 178.97 658.71 177.44 660.92 176.09 663.13 174.74 665.64 173.64 668.46 172.78 671.28 171.92 674.34 171.49 677.66 171.49 684.65 171.49 690.29 172.56 694.58 174.71 698.87 176.86 702.21 179.83 704.6 183.63 706.99 187.43 708.61 191.91 709.47 197.06 710.33 202.21 710.76 207.79 710.76 213.8L710.76 263.09 683.17 263.09 683.17 219.32C683.17 216.74 683.08 214.08 682.89 211.32 682.71 208.56 682.15 206.02 681.23 203.69 680.31 201.36 678.9 199.46 677 197.99 675.1 196.52 672.37 195.78 668.82 195.78 665.27 195.78 662.38 196.42 660.18 197.71 657.97 199 656.29 200.72 655.12 202.86 653.95 205.01 653.19 207.43 652.82 210.12 652.45 212.82 652.27 215.64 652.27 218.58L652.27 263.09 624.68 263.09 624.68 173.71Z" fill="#3EB044"/><path d="M733.75 132.87 762.44 132.87 762.44 181.42 818.17 181.42 818.17 132.87 846.86 132.87 846.86 263.08 818.17 263.08 818.17 206.8 762.44 206.8 762.44 263.08 733.75 263.08 733.75 132.87Z" fill="#3EB044"/><path d="M925.94 251.86 925.57 251.86C922.5 256.64 918.43 260.08 913.34 262.16 908.25 264.24 902.89 265.29 897.25 265.29 893.08 265.29 889.07 264.71 885.2 263.54 881.34 262.38 877.94 260.63 874.99 258.3 872.05 255.97 869.72 253.09 868 249.66 866.28 246.23 865.42 242.24 865.42 237.71 865.42 232.56 866.37 228.21 868.27 224.65 870.17 221.1 872.74 218.15 875.99 215.82 879.24 213.49 882.95 211.68 887.12 210.4 891.29 209.11 895.61 208.16 900.09 207.55 904.56 206.94 909.04 206.57 913.52 206.45 917.99 206.33 922.13 206.27 925.93 206.27 925.93 201.37 924.18 197.47 920.69 194.59 917.2 191.71 913.06 190.27 908.28 190.27 903.5 190.27 899.61 191.22 895.87 193.12 892.13 195.02 888.79 197.63 885.85 200.94L871.14 185.86C876.29 181.08 882.3 177.49 889.16 175.1 896.03 172.71 903.14 171.51 910.49 171.51 918.58 171.51 925.23 172.52 930.44 174.54 935.65 176.56 939.82 179.54 942.95 183.46 946.08 187.39 948.25 192.2 949.48 197.9 950.7 203.6 951.32 210.19 951.32 217.67L951.32 263.1 925.94 263.1 925.94 251.88ZM919.13 223.91C917.04 223.91 914.44 224 911.31 224.19 908.18 224.37 905.18 224.9 902.3 225.75 899.42 226.61 896.97 227.9 894.94 229.61 892.92 231.33 891.9 233.72 891.9 236.78 891.9 240.09 893.31 242.54 896.13 244.14 898.95 245.74 901.89 246.53 904.96 246.53 907.66 246.53 910.26 246.16 912.78 245.43 915.29 244.69 917.53 243.65 919.49 242.3 921.45 240.95 923.01 239.24 924.18 237.15 925.34 235.07 925.93 232.62 925.93 229.79L925.93 223.91 919.12 223.91Z" fill="#3EB044"/><path d="M968.6 173.7 995.08 173.7 995.08 185.84 995.45 185.84C996.31 184.13 997.53 182.41 999.13 180.69 1000.72 178.97 1002.62 177.44 1004.83 176.09 1007.04 174.74 1009.55 173.64 1012.37 172.78 1015.19 171.92 1018.25 171.49 1021.57 171.49 1028.56 171.49 1034.2 172.56 1038.49 174.71 1042.78 176.86 1046.12 179.83 1048.51 183.63 1050.9 187.43 1052.52 191.91 1053.38 197.06 1054.24 202.21 1054.67 207.79 1054.67 213.8L1054.67 263.09 1027.08 263.09 1027.08 219.32C1027.08 216.74 1026.99 214.08 1026.8 211.32 1026.62 208.56 1026.06 206.02 1025.14 203.69 1024.22 201.36 1022.81 199.46 1020.91 197.99 1019.01 196.52 1016.28 195.78 1012.73 195.78 1009.18 195.78 1006.29 196.42 1004.09 197.71 1001.88 199 1000.2 200.72 999.03 202.86 997.86 205.01 997.1 207.43 996.73 210.12 996.36 212.82 996.18 215.64 996.18 218.58L996.18 263.09 968.59 263.09 968.59 173.71Z" fill="#3EB044"/><path d="M1167.96 263.08 1142.58 263.08 1142.58 251.31 1142.21 251.31C1141.11 252.9 1139.66 254.53 1137.89 256.18 1136.11 257.84 1134.03 259.34 1131.64 260.69 1129.25 262.04 1126.61 263.14 1123.73 264 1120.85 264.86 1117.87 265.29 1114.81 265.29 1108.19 265.29 1102.18 264.16 1096.79 261.89 1091.39 259.62 1086.77 256.44 1082.91 252.33 1079.05 248.22 1076.07 243.35 1073.99 237.71 1071.9 232.07 1070.86 225.88 1070.86 219.13 1070.86 212.88 1071.81 206.9 1073.71 201.2 1075.61 195.5 1078.31 190.44 1081.8 186.03 1085.29 181.62 1089.55 178.09 1094.58 175.45 1099.61 172.82 1105.31 171.5 1111.68 171.5 1117.44 171.5 1122.81 172.39 1127.77 174.17 1132.74 175.95 1136.81 178.98 1140 183.27L1140.37 183.27 1140.37 124.05 1167.96 124.05 1167.96 263.09ZM1142.58 218.39C1142.58 211.65 1140.65 206.19 1136.79 202.02 1132.93 197.85 1127.5 195.77 1120.51 195.77 1113.52 195.77 1108.1 197.86 1104.23 202.02 1100.37 206.19 1098.44 211.65 1098.44 218.39 1098.44 225.13 1100.37 230.59 1104.23 234.76 1108.09 238.93 1113.52 241.01 1120.51 241.01 1127.5 241.01 1132.92 238.93 1136.79 234.76 1140.65 230.59 1142.58 225.14 1142.58 218.39Z" fill="#3EB044"/><path d="M1247.96 132.87 1286.95 132.87 1342.31 223.35 1342.68 223.35 1342.68 132.87 1371.37 132.87 1371.37 263.08 1333.85 263.08 1277.02 170.39 1276.65 170.39 1276.65 263.08 1247.96 263.08 1247.96 132.87Z" fill="#221814"/><path d="M1478.95 247.63C1474.54 253.27 1468.96 257.62 1462.21 260.69 1455.47 263.75 1448.48 265.29 1441.24 265.29 1434 265.29 1427.91 264.19 1421.84 261.98 1415.77 259.77 1410.5 256.62 1406.02 252.51 1401.54 248.4 1398.02 243.47 1395.44 237.71 1392.87 231.95 1391.58 225.51 1391.58 218.4 1391.58 211.29 1392.87 204.85 1395.44 199.09 1398.02 193.33 1401.54 188.39 1406.02 184.29 1410.49 180.18 1415.77 177.03 1421.84 174.82 1427.91 172.61 1434.37 171.51 1441.24 171.51 1447.61 171.51 1453.41 172.61 1458.62 174.82 1463.83 177.03 1468.24 180.19 1471.86 184.29 1475.48 188.4 1478.27 193.33 1480.23 199.09 1482.19 204.85 1483.17 211.29 1483.17 218.4L1483.17 227.04 1419.17 227.04C1420.27 232.31 1422.66 236.51 1426.34 239.64 1430.02 242.77 1434.55 244.33 1439.95 244.33 1444.48 244.33 1448.32 243.32 1451.44 241.29 1454.57 239.27 1457.29 236.66 1459.62 233.47L1478.93 247.63ZM1455.59 208.27C1455.71 203.61 1454.18 199.63 1450.99 196.32 1447.8 193.01 1443.69 191.35 1438.67 191.35 1435.6 191.35 1432.91 191.84 1430.58 192.82 1428.25 193.8 1426.26 195.06 1424.6 196.59 1422.94 198.13 1421.66 199.9 1420.74 201.92 1419.82 203.94 1419.3 206.06 1419.18 208.26L1455.6 208.26Z" fill="#221814"/><path d="M1560.79 195.77 1536.51 195.77 1536.51 225.56C1536.51 228.01 1536.63 230.25 1536.88 232.27 1537.12 234.29 1537.68 236.04 1538.54 237.51 1539.4 238.98 1540.71 240.12 1542.49 240.91 1544.27 241.71 1546.63 242.11 1549.57 242.11 1551.04 242.11 1552.97 241.96 1555.36 241.65 1557.75 241.35 1559.56 240.64 1560.79 239.53L1560.79 262.52C1557.72 263.62 1554.54 264.36 1551.23 264.73 1547.92 265.1 1544.67 265.28 1541.48 265.28 1536.82 265.28 1532.53 264.79 1528.61 263.81 1524.68 262.83 1521.25 261.27 1518.31 259.12 1515.37 256.98 1513.07 254.19 1511.41 250.75 1509.75 247.32 1508.93 243.15 1508.93 238.24L1508.93 195.76 1491.27 195.76 1491.27 173.69 1508.93 173.69 1508.93 147.21 1536.52 147.21 1536.52 173.69 1560.8 173.69 1560.8 195.76Z" fill="#221814"/><path d="M1564.1 173.7 1593.53 173.7 1611.74 229.79 1612.11 229.79 1627.37 173.7 1657.53 173.7 1674.08 229.79 1674.45 229.79 1691.19 173.7 1719.15 173.7 1687.33 263.08 1660.11 263.08 1641.53 203.68 1641.16 203.68 1624.61 263.08 1596.84 263.08 1564.1 173.7Z" fill="#221814"/><path d="M1724.65 218.39C1724.65 211.28 1725.94 204.84 1728.51 199.08 1731.09 193.32 1734.61 188.38 1739.09 184.28 1743.56 180.17 1748.84 177.02 1754.91 174.81 1760.98 172.6 1767.44 171.5 1774.31 171.5 1781.18 171.5 1787.64 172.6 1793.71 174.81 1799.78 177.02 1805.05 180.18 1809.53 184.28 1814 188.39 1817.53 193.32 1820.1 199.08 1822.68 204.84 1823.96 211.28 1823.96 218.39 1823.96 225.5 1822.67 231.94 1820.1 237.7 1817.53 243.46 1814 248.4 1809.53 252.5 1805.05 256.61 1799.78 259.76 1793.71 261.97 1787.64 264.18 1781.17 265.28 1774.31 265.28 1767.45 265.28 1760.98 264.18 1754.91 261.97 1748.84 259.76 1743.57 256.61 1739.09 252.5 1734.61 248.39 1731.09 243.46 1728.51 237.7 1725.94 231.94 1724.65 225.5 1724.65 218.39ZM1752.24 218.39C1752.24 225.13 1754.17 230.59 1758.03 234.76 1761.89 238.93 1767.32 241.01 1774.31 241.01 1781.3 241.01 1786.72 238.93 1790.59 234.76 1794.45 230.59 1796.38 225.14 1796.38 218.39 1796.38 211.64 1794.45 206.19 1790.59 202.02 1786.73 197.85 1781.3 195.77 1774.31 195.77 1767.32 195.77 1761.9 197.86 1758.03 202.02 1754.17 206.19 1752.24 211.65 1752.24 218.39Z" fill="#221814"/><path d="M1840.14 173.7 1867.73 173.7 1867.73 188.04 1868.1 188.04C1871.04 182.52 1874.54 178.38 1878.58 175.63 1882.63 172.87 1887.71 171.49 1893.84 171.49 1895.43 171.49 1897.03 171.55 1898.62 171.67 1900.21 171.79 1901.68 172.04 1903.03 172.41L1903.03 197.61C1901.07 197 1899.14 196.54 1897.24 196.23 1895.34 195.93 1893.35 195.77 1891.26 195.77 1885.99 195.77 1881.82 196.51 1878.75 197.98 1875.68 199.45 1873.32 201.51 1871.67 204.14 1870.01 206.78 1868.94 209.93 1868.45 213.61 1867.96 217.29 1867.71 221.33 1867.71 225.75L1867.71 263.08 1840.12 263.08 1840.12 173.7Z" fill="#221814"/><path d="M1914.99 124.04 1942.58 124.04 1942.58 209.01 1973.11 173.7 2006.95 173.7 1971.45 213.98 2007.87 263.08 1973.11 263.08 1942.95 217.84 1942.58 217.84 1942.58 263.08 1914.99 263.08 1914.99 124.04Z" fill="#221814"/><path d="M2067.82 200C2063.77 194.97 2058.44 192.46 2051.82 192.46 2049.49 192.46 2047.22 193.01 2045.02 194.12 2042.81 195.22 2041.71 197.13 2041.71 199.82 2041.71 202.03 2042.84 203.65 2045.11 204.69 2047.38 205.73 2050.26 206.65 2053.75 207.45 2057.24 208.25 2060.98 209.1 2064.97 210.02 2068.95 210.94 2072.69 212.38 2076.19 214.34 2079.68 216.3 2082.56 218.97 2084.83 222.34 2087.1 225.71 2088.23 230.22 2088.23 235.86 2088.23 241.5 2086.97 246.37 2084.46 250.11 2081.95 253.85 2078.73 256.85 2074.8 259.12 2070.88 261.39 2066.46 262.98 2061.56 263.9 2056.65 264.82 2051.81 265.28 2047.03 265.28 2040.78 265.28 2034.46 264.39 2028.09 262.61 2021.71 260.83 2016.32 257.68 2011.91 253.14L2028.65 234.57C2031.23 237.76 2034.08 240.18 2037.2 241.83 2040.33 243.49 2043.97 244.31 2048.14 244.31 2051.33 244.31 2054.21 243.85 2056.78 242.93 2059.36 242.01 2060.64 240.33 2060.64 237.87 2060.64 235.54 2059.51 233.8 2057.24 232.63 2054.97 231.47 2052.09 230.49 2048.6 229.69 2045.11 228.89 2041.36 228.03 2037.38 227.11 2033.39 226.19 2029.66 224.81 2026.16 222.97 2022.67 221.13 2019.78 218.53 2017.52 215.15 2015.25 211.78 2014.12 207.27 2014.12 201.63 2014.12 196.36 2015.19 191.82 2017.34 188.02 2019.48 184.22 2022.31 181.1 2025.8 178.64 2029.3 176.19 2033.31 174.38 2037.85 173.21 2042.38 172.05 2046.98 171.46 2051.64 171.46 2057.53 171.46 2063.47 172.32 2069.48 174.03 2075.49 175.75 2080.57 178.81 2084.74 183.23L2067.82 199.97Z" fill="#221814"/></g></svg>